<?xml version="1.0" encoding="UTF-8"?>
<!DOCTYPE svg PUBLIC "-//W3C//DTD SVG 1.1//EN" "http://www.w3.org/Graphics/SVG/1.1/DTD/svg11.dtd">
<svg xmlns="http://www.w3.org/2000/svg" version="1.1" width="512px" height="512px" style="shape-rendering:geometricPrecision; text-rendering:geometricPrecision; image-rendering:optimizeQuality; fill-rule:evenodd; clip-rule:evenodd" xmlns:xlink="http://www.w3.org/1999/xlink">
<g><path style="opacity:1" fill="#ff401b" d="M 497.5,117.5 C 500.088,119.561 502.922,122.227 506,125.5C 506.399,125.272 506.565,124.938 506.5,124.5C 508.68,126.863 510.347,129.53 511.5,132.5C 511.5,137.5 511.5,142.5 511.5,147.5C 509.774,149.942 508.274,152.609 507,155.5C 428.5,234 350,312.5 271.5,391C 263.728,396.513 255.395,397.679 246.5,394.5C 245.779,392.618 244.779,392.285 243.5,393.5C 242.5,393.167 241.833,392.5 241.5,391.5C 163.193,312.193 84.193,233.526 4.5,155.5C 2.83333,152.833 1.16667,150.167 -0.5,147.5C -0.5,142.5 -0.5,137.5 -0.5,132.5C 0.65323,129.53 2.3199,126.863 4.5,124.5C 8.66743,121.251 13.0008,118.251 17.5,115.5C 175.139,114.338 332.806,114.171 490.5,115C 493.191,115.156 495.524,115.989 497.5,117.5 Z"/></g>
<g><path style="opacity:0.98" fill="#ff8e83" d="M 17.5,115.5 C 13.0008,118.251 8.66743,121.251 4.5,124.5C 7.60432,119.777 11.9376,116.777 17.5,115.5 Z"/></g>
<g><path style="opacity:0.953" fill="#ff8f7f" d="M 497.5,117.5 C 501.363,118.694 504.363,121.027 506.5,124.5C 506.565,124.938 506.399,125.272 506,125.5C 502.922,122.227 500.088,119.561 497.5,117.5 Z"/></g>
<g><path style="opacity:0.118" fill="#ff96a0" d="M 241.5,391.5 C 161.882,313.549 82.882,234.882 4.5,155.5C 84.193,233.526 163.193,312.193 241.5,391.5 Z"/></g>
<g><path style="opacity:0.676" fill="#ff42b6" d="M 243.5,393.5 C 244.779,392.285 245.779,392.618 246.5,394.5C 245.391,394.443 244.391,394.11 243.5,393.5 Z"/></g>
</svg>
