<svg width="63" height="13" viewBox="0 0 63 13" fill="none" xmlns="http://www.w3.org/2000/svg">
<path d="M7.05541 2.26984C7.10306 2.26984 7.16432 2.29048 7.2392 2.33175C7.31408 2.36614 7.35152 2.46243 7.35152 2.62064V3.4254C7.35152 3.50794 7.3379 3.57672 7.31067 3.63175C7.29025 3.67989 7.26303 3.71773 7.22899 3.74524C7.20176 3.76587 7.17113 3.77963 7.1371 3.78651C7.10306 3.79339 7.07583 3.79683 7.05541 3.79683H4.43133V10.4206C4.43133 10.5788 4.39389 10.6786 4.31902 10.7198C4.25095 10.7542 4.19309 10.7714 4.14544 10.7714H3.20608C3.16524 10.7714 3.10738 10.7542 3.0325 10.7198C2.95762 10.6786 2.92019 10.5788 2.92019 10.4206V3.79683H0.296103C0.275682 3.79683 0.248454 3.79339 0.214419 3.78651C0.180384 3.77963 0.14635 3.76587 0.112315 3.74524C0.085087 3.71773 0.0578591 3.67989 0.0306313 3.63175C0.0102104 3.57672 0 3.50794 0 3.4254V2.62064C0 2.46243 0.0374383 2.36614 0.112315 2.33175C0.187191 2.29048 0.248454 2.26984 0.296103 2.26984H7.05541Z" fill="#FF3131"/>
<path d="M14.0143 2.26984C14.0551 2.26984 14.113 2.29048 14.1879 2.33175C14.2628 2.37302 14.3002 2.47275 14.3002 2.63095V3.43571C14.3002 3.59392 14.2628 3.69365 14.1879 3.73492C14.113 3.77619 14.0551 3.79683 14.0143 3.79683H8.1433C8.10246 3.79683 8.0446 3.77963 7.96973 3.74524C7.90166 3.70397 7.86762 3.60423 7.86762 3.44603V2.64127C7.86762 2.47619 7.90166 2.37302 7.96973 2.33175C8.0446 2.29048 8.10246 2.26984 8.1433 2.26984H14.0143ZM9.39919 8.30556C9.39919 8.65635 9.48768 8.90053 9.66466 9.0381C9.84845 9.17566 10.0969 9.24444 10.41 9.24444H14.0041C14.113 9.24444 14.1879 9.27884 14.2287 9.34762C14.2764 9.4164 14.3002 9.49894 14.3002 9.59524V10.4206C14.3002 10.5169 14.2764 10.5995 14.2287 10.6683C14.1879 10.737 14.113 10.7714 14.0041 10.7714H10.3794C9.88929 10.7714 9.48087 10.7026 9.15414 10.5651C8.83421 10.4206 8.57895 10.2177 8.38835 9.95635C8.19776 9.69497 8.06162 9.38201 7.97994 9.01746C7.90506 8.64603 7.86762 8.23333 7.86762 7.77937V6.41746C7.86762 6.33492 7.88124 6.25238 7.90846 6.16984C7.93569 6.08042 7.97994 6.00476 8.0412 5.94286C8.10927 5.87407 8.19436 5.81905 8.29646 5.77778C8.40537 5.73651 8.53811 5.71587 8.69467 5.71587H13.9633C14.0654 5.71587 14.1368 5.75027 14.1777 5.81905C14.2253 5.88783 14.2491 5.97037 14.2491 6.06667V6.88175C14.2491 6.97804 14.2253 7.06402 14.1777 7.13968C14.1368 7.20847 14.0654 7.24286 13.9633 7.24286H9.39919V8.30556Z" fill="#FF3131"/>
<path d="M21.0461 2.26984C21.1482 2.26984 21.2197 2.30767 21.2605 2.38333C21.3082 2.45212 21.332 2.53466 21.332 2.63095C21.332 2.69286 21.3354 2.78915 21.3422 2.91984C21.3558 3.05053 21.3592 3.18122 21.3524 3.31191C21.3456 3.43571 21.3184 3.54921 21.2707 3.65238C21.2299 3.74868 21.155 3.79683 21.0461 3.79683H17.3806C17.1219 3.79683 16.9211 3.83466 16.7781 3.91032C16.6352 3.98598 16.5297 4.09259 16.4616 4.23016C16.3935 4.36773 16.3527 4.52937 16.3391 4.71508C16.3255 4.89392 16.3187 5.09339 16.3187 5.31349V7.71746C16.3187 7.93069 16.3255 8.1336 16.3391 8.32619C16.3527 8.51191 16.3935 8.67354 16.4616 8.81111C16.5297 8.9418 16.6352 9.04841 16.7781 9.13095C16.9211 9.20661 17.1219 9.24444 17.3806 9.24444H21.0461C21.1482 9.24444 21.2197 9.28228 21.2605 9.35794C21.3082 9.42672 21.332 9.50926 21.332 9.60556C21.332 9.67434 21.3354 9.77407 21.3422 9.90476C21.3558 10.0354 21.3592 10.1661 21.3524 10.2968C21.3456 10.4275 21.3184 10.541 21.2707 10.6373C21.2299 10.7267 21.155 10.7714 21.0461 10.7714H17.3295C16.8054 10.7714 16.3765 10.6923 16.043 10.5341C15.7163 10.3759 15.461 10.1558 15.2772 9.87381C15.0934 9.5918 14.9675 9.25132 14.8994 8.85238C14.8382 8.45344 14.8075 8.01323 14.8075 7.53175V5.49921C14.8075 5.03148 14.8382 4.60159 14.8994 4.20952C14.9607 3.81058 15.0832 3.47011 15.267 3.1881C15.4508 2.89921 15.706 2.67566 16.0328 2.51746C16.3663 2.35238 16.7986 2.26984 17.3295 2.26984H21.0461Z" fill="#FF3131"/>
<path d="M43.476 1.97064C43.6598 1.97064 43.8164 1.99815 43.9457 2.05318C44.0819 2.1082 44.1976 2.18386 44.2929 2.28016C44.395 2.36958 44.4801 2.47963 44.5481 2.61032C44.623 2.74101 44.6911 2.88545 44.7523 3.04365L47.6215 10.1937C47.6487 10.2624 47.6623 10.3209 47.6623 10.369C47.6623 10.4378 47.6385 10.4929 47.5909 10.5341C47.55 10.5754 47.4956 10.596 47.4275 10.596H46.335C46.192 10.596 46.0933 10.5204 46.0389 10.369L43.4965 3.96191H43.4556L42.1283 7.33571H43.3944C43.5305 7.33571 43.6292 7.4045 43.6905 7.54206C43.7109 7.59021 43.7415 7.66587 43.7824 7.76905C43.83 7.86534 43.8743 7.96508 43.9151 8.06825C43.9627 8.17143 44.0002 8.27116 44.0274 8.36746C44.0614 8.45688 44.0785 8.52566 44.0785 8.57381C44.0785 8.67011 44.0478 8.74921 43.9866 8.81111C43.9253 8.87302 43.847 8.90397 43.7517 8.90397H41.5156L40.9336 10.3794C40.8792 10.5238 40.7839 10.596 40.6478 10.596H39.5246C39.368 10.596 39.2898 10.5204 39.2898 10.369C39.2898 10.3003 39.3 10.2418 39.3204 10.1937L42.1691 3.04365C42.2916 2.73413 42.4516 2.47963 42.649 2.28016C42.8464 2.07381 43.1221 1.97064 43.476 1.97064Z" fill="#FF3131"/>
<path d="M53.242 7.04683C53.2829 7.10873 53.3543 7.2291 53.4564 7.40794C53.5585 7.57989 53.6777 7.7828 53.8138 8.01667C53.9499 8.24365 54.0895 8.48439 54.2324 8.73889C54.3822 8.98651 54.5183 9.22381 54.6408 9.45079C54.7702 9.6709 54.8723 9.86005 54.9472 10.0183C55.0288 10.1696 55.0697 10.2659 55.0697 10.3071C55.0697 10.3828 55.0527 10.4481 55.0186 10.5032C54.9846 10.5582 54.9233 10.5857 54.8348 10.5857H53.7117C53.63 10.5857 53.5653 10.572 53.5177 10.5444C53.47 10.5101 53.4258 10.455 53.385 10.3794L51.5369 7.07778H49.3825V10.2246C49.3825 10.3209 49.3586 10.4069 49.311 10.4825C49.2701 10.5513 49.1987 10.5857 49.0966 10.5857H48.1674C48.0653 10.5857 47.9904 10.5513 47.9428 10.4825C47.8951 10.4069 47.8713 10.3209 47.8713 10.2246V5.90159C47.8713 5.80529 47.8917 5.72275 47.9326 5.65397C47.9802 5.58519 48.0585 5.55079 48.1674 5.55079H52.609C52.7655 5.55079 52.8881 5.52672 52.9765 5.47857C53.0718 5.42355 53.1433 5.35132 53.191 5.26191C53.2386 5.17249 53.2692 5.06931 53.2829 4.95238C53.3033 4.83545 53.3135 4.71164 53.3135 4.58095C53.3135 4.45027 53.3033 4.32646 53.2829 4.20952C53.2692 4.09259 53.2386 3.98942 53.191 3.9C53.1433 3.81058 53.0718 3.7418 52.9765 3.69365C52.8881 3.63862 52.7655 3.61111 52.609 3.61111H48.1674C48.0585 3.61111 47.9802 3.57672 47.9326 3.50794C47.8917 3.43915 47.8713 3.35661 47.8713 3.26032V2.44524C47.8713 2.34894 47.8917 2.2664 47.9326 2.19762C47.9802 2.12196 48.0585 2.08413 48.1674 2.08413H52.8744C53.2624 2.08413 53.5824 2.14947 53.8342 2.28016C54.0861 2.41085 54.2835 2.58968 54.4264 2.81667C54.5762 3.04365 54.6817 3.30847 54.7429 3.61111C54.8042 3.91376 54.8348 4.23704 54.8348 4.58095C54.8348 4.86984 54.811 5.15529 54.7634 5.4373C54.7225 5.71243 54.6408 5.96349 54.5183 6.19048C54.4026 6.41058 54.2426 6.59974 54.0384 6.75794C53.8342 6.90926 53.5687 7.00556 53.242 7.04683Z" fill="#FF3131"/>
<path d="M60.478 2.08413C61.009 2.08413 61.4378 2.16667 61.7645 2.33175C62.0981 2.48995 62.3567 2.71349 62.5405 3.00238C62.7243 3.28439 62.8468 3.62487 62.9081 4.02381C62.9694 4.41587 63 4.84577 63 5.31349V7.35635C63 7.82407 62.9694 8.25741 62.9081 8.65635C62.8468 9.04841 62.7243 9.38889 62.5405 9.67778C62.3635 9.96667 62.1083 10.1937 61.7747 10.3587C61.448 10.5169 61.0158 10.596 60.478 10.596H57.9867C57.4557 10.596 57.0235 10.5135 56.6899 10.3484C56.3632 10.1833 56.108 9.95635 55.9242 9.66746C55.7472 9.37857 55.6281 9.0381 55.5668 8.64603C55.5055 8.24709 55.4749 7.8172 55.4749 7.35635V5.31349C55.4749 4.85265 55.5055 4.42619 55.5668 4.03413C55.6281 3.63519 55.7506 3.29127 55.9344 3.00238C56.1182 2.71349 56.3734 2.48995 56.7002 2.33175C57.0269 2.16667 57.4557 2.08413 57.9867 2.08413H60.478ZM61.4786 5.1381C61.4786 4.92487 61.4718 4.7254 61.4582 4.53968C61.4446 4.35397 61.4038 4.19233 61.3357 4.05476C61.2744 3.9172 61.1723 3.81058 61.0294 3.73492C60.8864 3.65238 60.6856 3.61111 60.427 3.61111H58.0377C57.7859 3.61111 57.5885 3.65238 57.4455 3.73492C57.3026 3.81058 57.1971 3.9172 57.129 4.05476C57.0609 4.19233 57.0201 4.35397 57.0065 4.53968C56.9929 4.7254 56.986 4.92487 56.986 5.1381V7.54206C56.986 7.75529 56.9929 7.95476 57.0065 8.14048C57.0201 8.32619 57.0609 8.48783 57.129 8.6254C57.1971 8.75608 57.3026 8.8627 57.4455 8.94524C57.5885 9.0209 57.7859 9.05873 58.0377 9.05873H60.427C60.6856 9.05873 60.8864 9.0209 61.0294 8.94524C61.1723 8.8627 61.2744 8.75608 61.3357 8.6254C61.4038 8.48783 61.4446 8.32619 61.4582 8.14048C61.4718 7.95476 61.4786 7.75529 61.4786 7.54206V5.1381Z" fill="#FF3131"/>
<path d="M35.757 0H37.5948V2.78571L32.6877 6.51857L37.5948 10.2514V13H35.757V11.18L31.1623 7.68857L26.5676 11.18V13H24.7297V10.2514L29.6368 6.51857L24.7297 2.78571V0H26.5676V1.85714L31.1623 5.34857L35.757 1.85714V0Z" fill="#2C2C2C"/>
</svg>
